<?xml version="1.0" encoding="UTF-8"?>
<svg xmlns="http://www.w3.org/2000/svg" xmlns:xlink="http://www.w3.org/1999/xlink" viewBox="0 0 40 40" width="40px" height="40px">
<g id="surface183757030">
<path style="fill-rule:nonzero;fill:rgb(40.392157%,29.411766%,68.627453%);fill-opacity:1;stroke-width:1;stroke-linecap:butt;stroke-linejoin:miter;stroke:rgb(100%,100%,100%);stroke-opacity:1;stroke-miterlimit:10;" d="M 38.499998 19.999999 C 38.499998 30.218749 30.218749 38.499998 19.999999 38.499998 C 9.78125 38.499998 1.5 30.218749 1.5 19.999999 C 1.5 9.78125 9.78125 1.5 19.999999 1.5 C 30.218749 1.5 38.499998 9.78125 38.499998 19.999999 Z M 38.499998 19.999999 " transform="matrix(1,0,0,1,0,0)"/>
<path style=" stroke:none;fill-rule:nonzero;fill:rgb(100%,100%,100%);fill-opacity:1;" d="M 25.367188 20 L 22 20 L 22 32 L 17 32 L 17 20 L 14 20 L 14 16 L 17 16 L 17 13.589844 C 17.003906 10.082031 18.460938 8 22.59375 8 L 26 8 L 26 12 L 23.714844 12 C 22.105469 12 22 12.601562 22 13.722656 L 22 16 L 26 16 Z M 25.367188 20 "/>
</g>
</svg>
