<?xml version="1.0" encoding="UTF-8" standalone="no"?>
<svg
   viewBox="0 0 40 40"
   width="40px"
   height="40px"
   version="1.1"
   id="svg18"
   sodipodi:docname="icons-twitter.svg"
   inkscape:version="1.2.1 (9c6d41e410, 2022-07-14)"
   xmlns:inkscape="http://www.inkscape.org/namespaces/inkscape"
   xmlns:sodipodi="http://sodipodi.sourceforge.net/DTD/sodipodi-0.dtd"
   xmlns="http://www.w3.org/2000/svg"
   xmlns:svg="http://www.w3.org/2000/svg">
  <defs
     id="defs22" />
  <sodipodi:namedview
     id="namedview20"
     pagecolor="#ffffff"
     bordercolor="#000000"
     borderopacity="0.25"
     inkscape:showpageshadow="2"
     inkscape:pageopacity="0.0"
     inkscape:pagecheckerboard="0"
     inkscape:deskcolor="#d1d1d1"
     showgrid="false"
     inkscape:zoom="21.925"
     inkscape:cx="15.598632"
     inkscape:cy="20.022805"
     inkscape:window-width="1920"
     inkscape:window-height="1057"
     inkscape:window-x="1912"
     inkscape:window-y="-8"
     inkscape:window-maximized="1"
     inkscape:current-layer="svg18" />
  <g
     id="g431">
    <path
       style="fill:#664aae;fill-opacity:1;fill-rule:nonzero;stroke:#ffffff;stroke-width:1;stroke-linecap:butt;stroke-linejoin:miter;stroke-miterlimit:10;stroke-opacity:1"
       d="m 38.499998,19.999999 c 0,10.21875 -8.281249,18.499999 -18.499999,18.499999 C 9.78125,38.499998 1.5,30.218749 1.5,19.999999 1.5,9.78125 9.78125,1.5 19.999999,1.5 c 10.21875,0 18.499999,8.28125 18.499999,18.499999 z m 0,0"
       id="path13" />
    <path
       d="M 15.997586,10 C 12.694568,10 10,12.593 10,15.773 v 8.348 c 0,3.173 2.694568,5.766 5.997586,5.766 h 8.673525 c 3.296809,0 5.991375,-2.593 5.991375,-5.772 v -8.342 c 0,-3.18 -2.694566,-5.773 -5.997583,-5.773 z m 0,1.53 h 8.667317 c 2.446218,0 4.408161,1.888 4.408161,4.243 v 8.342 c 0,2.354 -1.961943,4.242 -4.401953,4.242 h -8.673525 c -2.446221,0 -4.408164,-1.888 -4.408164,-4.236 v -8.348 c 0,-2.355 1.961943,-4.243 4.408164,-4.243 z m 10.691345,1.53 c -0.440817,0 -0.79471,0.34 -0.79471,0.764 0,0.425 0.353893,0.765 0.79471,0.765 0.440816,0 0.794711,-0.34 0.794711,-0.765 0,-0.424 -0.353895,-0.764 -0.794711,-0.764 z m -6.357687,1.529 c -3.060879,0 -5.562977,2.409 -5.562977,5.355 0,2.946 2.502098,5.354 5.562977,5.354 3.060877,0 5.562977,-2.408 5.562977,-5.354 0,-2.946 -2.5021,-5.355 -5.562977,-5.355 z m 0,1.53 c 2.204081,0 3.973554,1.703 3.973554,3.825 0,2.121 -1.769473,3.824 -3.973554,3.824 -2.204083,0 -3.973556,-1.703 -3.973556,-3.824 0,-2.122 1.769473,-3.825 3.973556,-3.825 z"
       id="path312"
       style="fill:#ffffff;stroke-width:1.55931" />
  </g>
</svg>
